<mxfile host="app.diagrams.net" agent="Mozilla/5.0 (Windows NT 10.0; Win64; x64; rv:130.0) Gecko/20100101 Firefox/130.0" version="24.7.12">
  <diagram name="Page-1" id="N0Hd7t6T6hSaKdjdyGFI">
    <mxGraphModel dx="3640" dy="2006" grid="1" gridSize="10" guides="1" tooltips="1" connect="1" arrows="1" fold="1" page="1" pageScale="1" pageWidth="1169" pageHeight="827" math="0" shadow="0">
      <root>
        <mxCell id="0" />
        <mxCell id="1" parent="0" />
        <mxCell id="f4Jtz0p4KT4NomE1Ug3G-1" value="Articles Report" style="whiteSpace=wrap;html=1;fontSize=50;verticalAlign=top;movable=0;resizable=0;rotatable=0;deletable=0;editable=0;locked=1;connectable=0;" parent="1" vertex="1">
          <mxGeometry width="1600" height="900" as="geometry" />
        </mxCell>
        <mxCell id="f4Jtz0p4KT4NomE1Ug3G-47" value="Display Report" style="rounded=0;whiteSpace=wrap;html=1;fontSize=50;strokeWidth=2;" parent="1" vertex="1">
          <mxGeometry x="20" y="800" width="340" height="80" as="geometry" />
        </mxCell>
        <mxCell id="f4Jtz0p4KT4NomE1Ug3G-48" value="Return" style="rounded=0;whiteSpace=wrap;html=1;fontSize=50;strokeWidth=2;" parent="1" vertex="1">
          <mxGeometry x="1290" y="800" width="290" height="80" as="geometry" />
        </mxCell>
        <mxCell id="f4Jtz0p4KT4NomE1Ug3G-50" style="edgeStyle=orthogonalEdgeStyle;rounded=0;orthogonalLoop=1;jettySize=auto;html=1;fontSize=100;strokeWidth=5;exitX=0.5;exitY=0;exitDx=0;exitDy=0;" parent="1" source="f4Jtz0p4KT4NomE1Ug3G-49" target="f4Jtz0p4KT4NomE1Ug3G-48" edge="1">
          <mxGeometry relative="1" as="geometry">
            <Array as="points">
              <mxPoint x="1435" y="1030" />
              <mxPoint x="1435" y="1030" />
            </Array>
          </mxGeometry>
        </mxCell>
        <mxCell id="f4Jtz0p4KT4NomE1Ug3G-49" value="Button that returns the user to the menu" style="rounded=0;whiteSpace=wrap;html=1;fontSize=30;" parent="1" vertex="1">
          <mxGeometry x="1170" y="1100" width="530" height="105" as="geometry" />
        </mxCell>
        <mxCell id="f4Jtz0p4KT4NomE1Ug3G-52" style="edgeStyle=orthogonalEdgeStyle;rounded=0;orthogonalLoop=1;jettySize=auto;html=1;entryX=0.5;entryY=1;entryDx=0;entryDy=0;strokeWidth=5;" parent="1" source="f4Jtz0p4KT4NomE1Ug3G-51" target="f4Jtz0p4KT4NomE1Ug3G-47" edge="1">
          <mxGeometry relative="1" as="geometry" />
        </mxCell>
        <mxCell id="k2KhV0KlQwDRxl8aZdoA-8" style="edgeStyle=orthogonalEdgeStyle;rounded=0;orthogonalLoop=1;jettySize=auto;html=1;strokeWidth=5;" edge="1" parent="1" source="f4Jtz0p4KT4NomE1Ug3G-51" target="k2KhV0KlQwDRxl8aZdoA-7">
          <mxGeometry relative="1" as="geometry" />
        </mxCell>
        <mxCell id="f4Jtz0p4KT4NomE1Ug3G-51" value="Button collects article data and then generates report when clicked" style="rounded=0;whiteSpace=wrap;html=1;fontSize=30;" parent="1" vertex="1">
          <mxGeometry x="410" y="1086" width="530" height="155" as="geometry" />
        </mxCell>
        <mxCell id="zkrj8ikKc5orAXMIiYBu-33" value="&lt;div&gt;Text in black will be in labels or captions. &lt;br&gt;&lt;/div&gt;&lt;div&gt;&lt;br&gt;&lt;/div&gt;&lt;div&gt;&lt;font color=&quot;#66ffff&quot;&gt;Text in blue represents sample data and will appear in black.&amp;nbsp;&lt;/font&gt;&lt;/div&gt;&lt;div&gt;&lt;br&gt;&lt;/div&gt;&lt;div&gt;&lt;font color=&quot;#66ff66&quot;&gt;Text in green will be in labels in the report and will appear in black.&lt;/font&gt;&lt;/div&gt;" style="rounded=0;whiteSpace=wrap;html=1;fontSize=30;strokeWidth=2;" parent="1" vertex="1">
          <mxGeometry x="1790" y="670" width="530" height="320" as="geometry" />
        </mxCell>
        <mxCell id="k2KhV0KlQwDRxl8aZdoA-7" value="&lt;div style=&quot;font-size: 24px;&quot;&gt;&lt;font style=&quot;font-size: 24px;&quot; color=&quot;#66ffff&quot;&gt;2001&amp;nbsp;&amp;nbsp;&amp;nbsp; Review of cloud computing&amp;nbsp;&amp;nbsp;&lt;span style=&quot;white-space: pre; font-size: 24px;&quot;&gt;&#x9;&lt;/span&gt;&lt;/font&gt;&lt;font style=&quot;font-size: 24px;&quot; color=&quot;#66ffff&quot;&gt;&lt;span style=&quot;white-space: pre;&quot;&gt;&#x9;&lt;/span&gt;&lt;span style=&quot;white-space: pre;&quot;&gt;&#x9;&lt;/span&gt;9/1/2019&amp;nbsp;&amp;nbsp;&amp;nbsp; &lt;span style=&quot;white-space: pre; font-size: 24px;&quot;&gt;&#x9;&lt;/span&gt;&lt;/font&gt;&lt;font color=&quot;#66ff66&quot;&gt;Status:&lt;/font&gt;&lt;font style=&quot;font-size: 24px;&quot; color=&quot;#66ffff&quot;&gt; On Loan&lt;/font&gt;&lt;font style=&quot;font-size: 24px;&quot; color=&quot;#66ffff&quot;&gt;&amp;nbsp;&amp;nbsp;&amp;nbsp;&amp;nbsp;&amp;nbsp;&amp;nbsp;&amp;nbsp; &lt;/font&gt;&lt;/div&gt;&lt;div style=&quot;font-size: 24px;&quot;&gt;&lt;font style=&quot;font-size: 24px;&quot; color=&quot;#66ffff&quot;&gt;&lt;span style=&quot;white-space: pre; font-size: 24px;&quot;&gt;&#x9;&lt;/span&gt;&lt;/font&gt;&lt;font color=&quot;#66ff66&quot;&gt;Pages:&lt;/font&gt;&lt;font style=&quot;font-size: 24px;&quot; color=&quot;#66ffff&quot;&gt;&lt;span style=&quot;white-space: pre;&quot;&gt;&#x9;&lt;/span&gt;15&amp;nbsp;&amp;nbsp;&amp;nbsp;&amp;nbsp;&lt;/font&gt;&lt;/div&gt;&lt;div style=&quot;font-size: 24px;&quot;&gt;&lt;font style=&quot;font-size: 24px;&quot; color=&quot;#66ffff&quot;&gt;&lt;span style=&quot;white-space: pre; font-size: 24px;&quot;&gt;&#x9;&lt;/span&gt;&lt;/font&gt;&lt;font color=&quot;#66ff66&quot; style=&quot;font-size: 24px;&quot;&gt;Topic:&lt;/font&gt;&lt;font style=&quot;font-size: 24px;&quot; color=&quot;#66ffff&quot;&gt; &lt;span style=&quot;white-space: pre;&quot;&gt;&#x9;&lt;/span&gt;Cloud Computing &lt;br style=&quot;font-size: 24px;&quot;&gt;&lt;/font&gt;&lt;/div&gt;&lt;font style=&quot;font-size: 24px;&quot; color=&quot;#66ffff&quot;&gt;&lt;span style=&quot;white-space: pre; font-size: 24px;&quot;&gt;&#x9;&lt;/span&gt;&lt;/font&gt;&lt;font style=&quot;font-size: 24px;&quot; color=&quot;#66ff66&quot;&gt;Authors:&lt;/font&gt;&lt;font style=&quot;font-size: 24px;&quot; color=&quot;#66ffff&quot;&gt;&amp;nbsp;&amp;nbsp; Fred Smith (primary),&amp;nbsp;&amp;nbsp;&amp;nbsp; Wu Lan (secondary)&lt;br style=&quot;font-size: 24px;&quot;&gt;&lt;/font&gt;&lt;font style=&quot;font-size: 24px;&quot; color=&quot;#66ff66&quot;&gt;&lt;span style=&quot;white-space: pre; font-size: 24px;&quot;&gt;&#x9;&lt;/span&gt;Notes:&lt;/font&gt;&lt;font style=&quot;font-size: 24px;&quot; color=&quot;#66ffff&quot;&gt; &lt;span style=&quot;white-space: pre;&quot;&gt;&#x9;&lt;/span&gt;Interoperability, Infrastructure, Migration, Multi-Tenancy&lt;br style=&quot;font-size: 24px;&quot;&gt;&lt;br style=&quot;font-size: 24px;&quot;&gt;&lt;/font&gt;&lt;div style=&quot;font-size: 24px;&quot;&gt;&lt;font style=&quot;font-size: 24px;&quot; color=&quot;#66ffff&quot;&gt;2002&amp;nbsp;&amp;nbsp;&amp;nbsp; Review of cloud detection algorithms&lt;span style=&quot;white-space: pre;&quot;&gt;&#x9;&lt;/span&gt;&lt;span style=&quot;white-space: pre;&quot;&gt;&#x9;&lt;/span&gt;&lt;/font&gt;&lt;font style=&quot;font-size: 24px;&quot; color=&quot;#66ffff&quot;&gt;2/3/2019&amp;nbsp;&amp;nbsp;&amp;nbsp;&amp;nbsp; &lt;/font&gt;&lt;font color=&quot;#66ff66&quot;&gt;&lt;span style=&quot;white-space: pre;&quot;&gt;&#x9;&lt;/span&gt;Status:&lt;/font&gt;&lt;font style=&quot;font-size: 24px;&quot; color=&quot;#66ffff&quot;&gt; On Loan&lt;/font&gt;&lt;/div&gt;&lt;div style=&quot;font-size: 24px;&quot;&gt;&lt;font style=&quot;font-size: 24px;&quot; color=&quot;#66ffff&quot;&gt;&lt;span style=&quot;white-space: pre; font-size: 24px;&quot;&gt;&#x9;&lt;/span&gt;&lt;/font&gt;&lt;font color=&quot;#66ff66&quot;&gt;Pages:&lt;/font&gt;&lt;font style=&quot;font-size: 24px;&quot; color=&quot;#66ffff&quot;&gt;&lt;span style=&quot;white-space: pre;&quot;&gt;&#x9;&lt;/span&gt;14&amp;nbsp;&amp;nbsp;&amp;nbsp;&amp;nbsp;&lt;/font&gt;&lt;/div&gt;&lt;div style=&quot;font-size: 24px;&quot;&gt;&lt;font style=&quot;font-size: 24px;&quot; color=&quot;#66ffff&quot;&gt;&lt;span style=&quot;white-space: pre; font-size: 24px;&quot;&gt;&#x9;&lt;/span&gt;&lt;/font&gt;&lt;font color=&quot;#66ff66&quot; style=&quot;font-size: 24px;&quot;&gt;Topic: &lt;/font&gt;&lt;font style=&quot;font-size: 24px;&quot; color=&quot;#66ffff&quot;&gt;&lt;span style=&quot;white-space: pre;&quot;&gt;&#x9;&lt;/span&gt;Remote Sensing&lt;br style=&quot;font-size: 24px;&quot;&gt;&lt;/font&gt;&lt;/div&gt;&lt;font style=&quot;font-size: 24px;&quot; color=&quot;#66ffff&quot;&gt;&lt;span style=&quot;white-space: pre; font-size: 24px;&quot;&gt;&#x9;&lt;/span&gt;&lt;/font&gt;&lt;font style=&quot;font-size: 24px;&quot; color=&quot;#66ff66&quot;&gt;Authors:&lt;/font&gt;&lt;font style=&quot;font-size: 24px;&quot; color=&quot;#66ffff&quot;&gt;&lt;span style=&quot;white-space: pre;&quot;&gt;&#x9;&lt;/span&gt;Mark Hall (primary)&lt;br style=&quot;font-size: 24px;&quot;&gt;&lt;/font&gt;&lt;font style=&quot;font-size: 24px;&quot; color=&quot;#66ff66&quot;&gt;&lt;span style=&quot;white-space: pre; font-size: 24px;&quot;&gt;&#x9;&lt;/span&gt;Notes:&lt;/font&gt;&lt;font style=&quot;font-size: 24px;&quot; color=&quot;#66ffff&quot;&gt; &lt;span style=&quot;white-space: pre;&quot;&gt;&#x9;&lt;/span&gt;NOAA, AVHRR, Spatial Dependency&lt;br style=&quot;font-size: 24px;&quot;&gt;&lt;br style=&quot;font-size: 24px;&quot;&gt;&lt;/font&gt;&lt;div style=&quot;font-size: 24px;&quot;&gt;&lt;font style=&quot;font-size: 24px;&quot; color=&quot;#66ffff&quot;&gt;2003&amp;nbsp;&amp;nbsp;&amp;nbsp; Review of Internet of things&amp;nbsp;&amp;nbsp;&amp;nbsp;&amp;nbsp;&amp;nbsp;&amp;nbsp;&amp;nbsp;&lt;/font&gt;&lt;font style=&quot;font-size: 24px;&quot; color=&quot;#66ffff&quot;&gt;&lt;span style=&quot;white-space: pre;&quot;&gt;&#x9;&lt;/span&gt;&lt;span style=&quot;white-space: pre;&quot;&gt;&#x9;&lt;/span&gt;&lt;span style=&quot;white-space: pre;&quot;&gt;&#x9;&lt;/span&gt;1/2/2020&amp;nbsp;&amp;nbsp;&amp;nbsp;&amp;nbsp; &lt;/font&gt;&lt;font color=&quot;#66ff66&quot;&gt;&lt;span style=&quot;white-space: pre;&quot;&gt;&#x9;&lt;/span&gt;Status: &lt;/font&gt;&lt;font style=&quot;font-size: 24px;&quot; color=&quot;#66ffff&quot;&gt;On Loan&lt;/font&gt;&lt;font style=&quot;font-size: 24px;&quot; color=&quot;#66ffff&quot;&gt; &lt;br style=&quot;font-size: 24px;&quot;&gt;&lt;/font&gt;&lt;/div&gt;&lt;div style=&quot;font-size: 24px;&quot;&gt;&lt;font style=&quot;font-size: 24px;&quot; color=&quot;#66ffff&quot;&gt;&lt;span style=&quot;white-space: pre; font-size: 24px;&quot;&gt;&#x9;&lt;/span&gt;&lt;/font&gt;&lt;font color=&quot;#66ff66&quot;&gt;Pages:&lt;/font&gt;&lt;font style=&quot;font-size: 24px;&quot; color=&quot;#66ffff&quot;&gt;&lt;span style=&quot;white-space: pre;&quot;&gt;&#x9;&lt;/span&gt;16&amp;nbsp;&amp;nbsp;&amp;nbsp; &lt;br style=&quot;font-size: 24px;&quot;&gt;&lt;/font&gt;&lt;/div&gt;&lt;div style=&quot;font-size: 24px;&quot;&gt;&lt;font style=&quot;font-size: 24px;&quot; color=&quot;#66ffff&quot;&gt;&lt;span style=&quot;white-space: pre; font-size: 24px;&quot;&gt;&#x9;&lt;/span&gt;&lt;/font&gt;&lt;font color=&quot;#66ff66&quot; style=&quot;font-size: 24px;&quot;&gt;Topic: &lt;/font&gt;&lt;font style=&quot;font-size: 24px;&quot; color=&quot;#66ffff&quot;&gt;&lt;span style=&quot;white-space: pre;&quot;&gt;&#x9;&lt;/span&gt;Internet of things&amp;nbsp;&amp;nbsp;&amp;nbsp; &lt;br style=&quot;font-size: 24px;&quot;&gt;&lt;/font&gt;&lt;/div&gt;&lt;font style=&quot;font-size: 24px;&quot; color=&quot;#66ffff&quot;&gt;&lt;span style=&quot;white-space: pre; font-size: 24px;&quot;&gt;&#x9;&lt;/span&gt;&lt;/font&gt;&lt;font style=&quot;font-size: 24px;&quot; color=&quot;#66ff66&quot;&gt;Authors:&lt;/font&gt;&lt;font style=&quot;font-size: 24px;&quot; color=&quot;#66ffff&quot;&gt;&lt;span style=&quot;white-space: pre;&quot;&gt;&#x9;&lt;/span&gt;Pedro Ramirez (primary)&amp;nbsp;&amp;nbsp;&amp;nbsp; Marco Chen (secondary)&lt;br style=&quot;font-size: 24px;&quot;&gt;&lt;/font&gt;&lt;font style=&quot;font-size: 24px;&quot; color=&quot;#66ff66&quot;&gt;&lt;span style=&quot;white-space: pre; font-size: 24px;&quot;&gt;&#x9;&lt;/span&gt;Notes:&lt;span style=&quot;white-space: pre;&quot;&gt;&#x9;&lt;/span&gt;&lt;/font&gt;&lt;font style=&quot;font-size: 24px;&quot; color=&quot;#66ffff&quot;&gt;General Packet Radio Service, Embedded Software&lt;br style=&quot;font-size: 24px;&quot;&gt;&lt;br style=&quot;font-size: 24px;&quot;&gt;&lt;/font&gt;&lt;div&gt;&lt;font style=&quot;font-size: 24px;&quot; color=&quot;#66ffff&quot;&gt;2004&amp;nbsp;&amp;nbsp;&amp;nbsp; Cyber Security – An Appraisal&lt;span style=&quot;white-space: pre;&quot;&gt;&#x9;&lt;/span&gt;&lt;span style=&quot;white-space: pre;&quot;&gt;&#x9;&lt;span style=&quot;white-space: pre;&quot;&gt;&#x9;&lt;/span&gt;&lt;/span&gt;&lt;/font&gt;&lt;font style=&quot;font-size: 24px;&quot; color=&quot;#66ffff&quot;&gt;4/9/2019&amp;nbsp;&amp;nbsp;&amp;nbsp;&amp;nbsp; &lt;/font&gt;&lt;font color=&quot;#66ff66&quot;&gt;&lt;span style=&quot;white-space: pre;&quot;&gt;&#x9;&lt;/span&gt;Status: &lt;/font&gt;&lt;font style=&quot;font-size: 24px;&quot; color=&quot;#66ffff&quot;&gt;On Loan&lt;/font&gt;&lt;font style=&quot;font-size: 24px;&quot; color=&quot;#66ffff&quot;&gt; &lt;br&gt;&lt;/font&gt;&lt;/div&gt;&lt;div&gt;&lt;font style=&quot;font-size: 24px;&quot; color=&quot;#66ffff&quot;&gt;&lt;span style=&quot;white-space: pre;&quot;&gt;&#x9;&lt;/span&gt;&lt;/font&gt;&lt;font color=&quot;#66ff66&quot;&gt;Pages:&lt;/font&gt;&lt;font style=&quot;font-size: 24px;&quot; color=&quot;#66ffff&quot;&gt;&lt;span style=&quot;white-space: pre;&quot;&gt;&#x9;&lt;/span&gt;20&amp;nbsp;&amp;nbsp;&amp;nbsp;&amp;nbsp;&lt;/font&gt;&lt;/div&gt;&lt;div&gt;&lt;font style=&quot;font-size: 24px;&quot; color=&quot;#66ffff&quot;&gt;&lt;span style=&quot;white-space: pre;&quot;&gt;&#x9;&lt;/span&gt;&lt;/font&gt;&lt;font color=&quot;#66ff66&quot; style=&quot;font-size: 24px;&quot;&gt;Topic:&lt;span style=&quot;white-space: pre;&quot;&gt;&#x9;&lt;/span&gt;&lt;/font&gt;&lt;font style=&quot;font-size: 24px;&quot; color=&quot;#66ffff&quot;&gt;Cyber Security&amp;nbsp;&amp;nbsp;&amp;nbsp; &lt;br&gt;&lt;/font&gt;&lt;/div&gt;&lt;font style=&quot;font-size: 24px;&quot; color=&quot;#66ffff&quot;&gt;&lt;span style=&quot;white-space: pre; font-size: 24px;&quot;&gt;&#x9;&lt;/span&gt;&lt;/font&gt;&lt;font style=&quot;font-size: 24px;&quot; color=&quot;#66ff66&quot;&gt;Authors:&lt;/font&gt;&lt;font style=&quot;font-size: 24px;&quot; color=&quot;#66ffff&quot;&gt;&lt;span style=&quot;white-space: pre;&quot;&gt;&#x9;&lt;/span&gt;Li Chen (primary)&amp;nbsp;&amp;nbsp; &amp;nbsp;&lt;br style=&quot;font-size: 24px;&quot;&gt;&lt;span style=&quot;white-space: pre; font-size: 24px;&quot;&gt;&#x9;&lt;/span&gt;&lt;/font&gt;&lt;font style=&quot;font-size: 24px;&quot; color=&quot;#66ff66&quot;&gt;Notes:&lt;/font&gt;&lt;font style=&quot;font-size: 24px;&quot; color=&quot;#66ffff&quot;&gt;&lt;span style=&quot;white-space: pre;&quot;&gt;&#x9;&lt;/span&gt;Denial of Service, &lt;/font&gt;&lt;div style=&quot;font-size: 24px;&quot;&gt;&lt;br style=&quot;font-size: 24px;&quot;&gt;&lt;/div&gt;" style="whiteSpace=wrap;html=1;fontSize=24;verticalAlign=middle;align=left;" vertex="1" parent="1">
          <mxGeometry x="20" y="70" width="1560" height="710" as="geometry" />
        </mxCell>
        <mxCell id="k2KhV0KlQwDRxl8aZdoA-10" style="edgeStyle=orthogonalEdgeStyle;rounded=0;orthogonalLoop=1;jettySize=auto;html=1;strokeWidth=5;" edge="1" parent="1" source="k2KhV0KlQwDRxl8aZdoA-9" target="k2KhV0KlQwDRxl8aZdoA-7">
          <mxGeometry relative="1" as="geometry" />
        </mxCell>
        <mxCell id="k2KhV0KlQwDRxl8aZdoA-9" value="Read-only text box with multi-line mode and a vertical scroll bar" style="rounded=0;whiteSpace=wrap;html=1;fontSize=30;" vertex="1" parent="1">
          <mxGeometry x="1720" y="260" width="530" height="105" as="geometry" />
        </mxCell>
      </root>
    </mxGraphModel>
  </diagram>
</mxfile>
